# xmcd
#
# Track frame offsets:
#	150
#	23285
#	40624
#	58835
#	75670
#	90922
#	129798
#	150352
#	168345
#	187907
#	205860
#	225601
#	246165
#	261372
#	279454
#
# Disc length: 4327 seconds
#
# Revision: 0
# Processed by: cddbd v1.5.2PL0 Copyright (c) Steve Scherf et al.
# Submitted via: dBpowerAMP V4.0
#
DISCID=ab10e50f
DTITLE=Aventura - The Last
DYEAR=2009
DGENRE=Bachata
TTITLE0=Aventura 1
TTITLE1=Aventura 2
TTITLE2=Aventura 3
TTITLE3=Aventura 4
TTITLE4=Aventura 5
TTITLE5=Aventura 6
TTITLE6=Aventura 7
TTITLE7=Aventura 8
TTITLE8=Aventura 9
TTITLE9=Aventura 10
TTITLE10=Aventura 11
TTITLE11=Aventura 12
TTITLE12=Aventura 13
TTITLE13=Aventura 14
TTITLE14=Aventura15
EXTD=Aventura Romeo
EXTT0=
EXTT1=
EXTT2=
EXTT3=
EXTT4=
EXTT5=
EXTT6=
EXTT7=
EXTT8=
EXTT9=
EXTT10=
EXTT11=
EXTT12=
EXTT13=
EXTT14=
PLAYORDER=
